<svg xmlns="http://www.w3.org/2000/svg" viewBox="0 0 32 32" id="Shooting-Star--Streamline-Twemoji" height="32" width="32"><desc>Shooting Star Streamline Emoji: https://streamlinehq.com</desc><path fill="#226699" d="M32 28.444444444444443c0 1.9635555555555555 -1.5919999999999999 3.5555555555555554 -3.5555555555555554 3.5555555555555554H3.5555555555555554c-1.9635555555555555 0 -3.5555555555555554 -1.5919999999999999 -3.5555555555555554 -3.5555555555555554V3.5555555555555554c0 -1.9635555555555555 1.5919999999999999 -3.5555555555555554 3.5555555555555554 -3.5555555555555554h24.888888888888886c1.9635555555555555 0 3.5555555555555554 1.5919999999999999 3.5555555555555554 3.5555555555555554v24.888888888888886z" stroke-width="0.8889"></path><path fill="#f4900c" d="M9.777777777777777 8s6.4799999999999995 -4.050666666666666 18.666666666666664 -4.416888888888889c0.5795555555555555 -0.017777777777777778 1.7777777777777777 -0.027555555555555555 1.7777777777777777 0.8613333333333333 -5.333333333333333 8 -8 20.444444444444443 -8 20.444444444444443L9.777777777777777 8z" stroke-width="0.8889"></path><path fill="#ffac33" d="M10.666666666666666 14.222222222222221S21.333333333333332 4.444444444444445 28.444444444444443 3.5831111111111107C29.019555555555552 3.5128888888888885 30.22222222222222 3.5555555555555554 30.22222222222222 4.444444444444445c-6.222222222222221 3.5555555555555554 -10.666666666666666 16.88888888888889 -10.666666666666666 16.88888888888889l-8.88888888888889 -7.111111111111111z" stroke-width="0.8889"></path><path fill="#ffd983" d="M13.472 11.056c0.7342222222222221 0.6462222222222221 2.1226666666666665 1.0346666666666666 3.0853333333333333 0.8639999999999999l4.348444444444445 -0.7697777777777778c0.9635555555555556 -0.17066666666666666 1.4337777777777776 0.42488888888888887 1.047111111111111 1.3226666666666667l-1.7493333333333332 4.055999999999999c-0.38755555555555554 0.8977777777777778 -0.32799999999999996 2.3377777777777777 0.13155555555555554 3.2017777777777776l2.0755555555555554 3.896888888888889c0.46044444444444443 0.8639999999999999 0.0391111111111111 1.495111111111111 -0.9342222222222221 1.4044444444444444l-4.397333333333333 -0.41155555555555556c-0.9733333333333333 -0.09066666666666666 -2.3253333333333335 0.4106666666666667 -3.0035555555555553 1.1146666666666667l-3.066666666666667 3.1795555555555555c-0.6782222222222222 0.704 -1.4088888888888889 0.4995555555555556 -1.6239999999999999 -0.4551111111111111L8.416888888888888 24.15111111111111c-0.2142222222222222 -0.9537777777777777 -1.1093333333333333 -2.0844444444444443 -1.9884444444444445 -2.5128888888888885l-3.9706666666666663 -1.9333333333333331c-0.8791111111111111 -0.4275555555555555 -0.9102222222222222 -1.1866666666666665 -0.06933333333333333 -1.6853333333333331l3.799111111111111 -2.252444444444444c0.8408888888888888 -0.4986666666666667 1.64 -1.6986666666666665 1.775111111111111 -2.6675555555555555l0.6124444444444443 -4.373333333333333c0.1351111111111111 -0.9688888888888889 0.847111111111111 -1.232888888888889 1.5813333333333333 -0.5866666666666667l3.315555555555555 2.9164444444444446z" stroke-width="0.8889"></path></svg>